<?xml version="1.0" encoding="UTF-8" standalone="no"?>
<!DOCTYPE svg PUBLIC "-//W3C//DTD SVG 1.1//EN" "http://www.w3.org/Graphics/SVG/1.1/DTD/svg11.dtd">
<svg width="100%" height="100%" viewBox="0 0 3024 3024" version="1.1" xmlns="http://www.w3.org/2000/svg" xmlns:xlink="http://www.w3.org/1999/xlink" xml:space="preserve" xmlns:serif="http://www.serif.com/" style="fill-rule:evenodd;clip-rule:evenodd;stroke-linejoin:round;stroke-miterlimit:2;">
    <g transform="matrix(1.12283,0,0,1.1988,-188.587,-358.11)">
        <path d="M2860.8,594.117C2860.8,431.084 2719.49,298.723 2545.43,298.723L483.336,298.723C309.273,298.723 167.956,431.084 167.956,594.117L167.956,2525.53C167.956,2688.56 309.273,2820.92 483.336,2820.92L2545.43,2820.92C2719.49,2820.92 2860.8,2688.56 2860.8,2525.53L2860.8,594.117Z" style="fill:rgb(235,235,235);"/>
    </g>
    <g transform="matrix(0.957408,0,0,0.953327,80.6153,62.6187)">
        <ellipse cx="1055.55" cy="1056.93" rx="1050.31" ry="1054.8"/>
    </g>
    <g transform="matrix(0.682386,0,0,0.679478,370.914,352.057)">
        <ellipse cx="1055.55" cy="1056.93" rx="1050.31" ry="1054.8" style="fill:rgb(235,235,235);"/>
    </g>
    <g transform="matrix(1.06914,1.06914,-0.616283,0.616283,1895.54,-1131.43)">
        <path d="M2214.31,2361.79C2214.31,2304.77 2187.63,2258.48 2154.76,2258.48L1256.89,2258.48C1224.02,2258.48 1197.33,2304.77 1197.33,2361.79L1197.33,2568.41C1197.33,2625.43 1224.02,2671.73 1256.89,2671.73L2154.76,2671.73C2187.63,2671.73 2214.31,2625.43 2214.31,2568.41L2214.31,2361.79Z"/>
    </g>
</svg>
